<?xml version="1.0" encoding="UTF-8" standalone="no"?>
<!DOCTYPE svg PUBLIC "-//W3C//DTD SVG 1.1//EN" "http://www.w3.org/Graphics/SVG/1.1/DTD/svg11.dtd">
<!-- Generated by graphviz version 2.40.1 (20161225.0304)
 -->
<!-- Title: YAML_automaton Pages: 1 -->
<svg width="1392pt" height="674pt" viewBox="0.00 0.00 1391.85 674.13" xmlns="http://www.w3.org/2000/svg" xmlns:xlink="http://www.w3.org/1999/xlink">
<g id="graph0" class="graph" transform="scale(1 1) rotate(0) translate(4 670.1333)">
<title>YAML_automaton</title>
<polygon fill="#ffffff" stroke="transparent" points="-4,4 -4,-670.1333 1387.849,-670.1333 1387.849,4 -4,4"/>
<!-- _start -->
<!-- _node -->
<g id="node2" class="node">
<title>_node</title>
<ellipse fill="none" stroke="#000000" cx="131.7875" cy="-211.9748" rx="29.6185" ry="29.6185"/>
<text text-anchor="middle" x="131.7875" y="-207.7748" font-family="Times,serif" font-size="14.00" fill="#000000">node</text>
</g>
<!-- _start&#45;&gt;_node -->
<g id="edge1" class="edge">
<title>_start-&gt;_node</title>
<path fill="none" stroke="#000000" d="M65.0033,-211.9748C73.5406,-211.9748 82.8483,-211.9748 91.7302,-211.9748"/>
<polygon fill="#000000" stroke="#000000" points="91.8896,-215.4749 101.8896,-211.9748 91.8896,-208.4749 91.8896,-215.4749"/>
</g>
<!-- scalar_start -->
<g id="node4" class="node">
<title>scalar_start</title>
<ellipse fill="none" stroke="#000000" cx="491.6525" cy="-359.9748" rx="33.6015" ry="33.6015"/>
<text text-anchor="middle" x="491.6525" y="-355.7748" font-family="Times,serif" font-size="14.00" fill="#000000">scalar</text>
</g>
<!-- _node&#45;&gt;scalar_start -->
<g id="edge2" class="edge">
<title>_node-&gt;scalar_start</title>
<path fill="none" stroke="#000000" d="M150.0991,-235.6056C168.6199,-257.8661 199.2623,-290.4809 232.9713,-308.9748 301.6336,-346.6454 394.0626,-356.7431 447.8206,-359.2974"/>
<polygon fill="#000000" stroke="#000000" points="447.9039,-362.8036 458.0381,-359.7136 448.1888,-355.8094 447.9039,-362.8036"/>
<text text-anchor="middle" x="280.5617" y="-347.1748" font-family="Times,serif" font-size="14.00" fill="#000000">scalar value</text>
</g>
<!-- block_sequence -->
<g id="node13" class="node">
<title>block_sequence</title>
<ellipse fill="none" stroke="#000000" cx="280.5617" cy="-251.9748" rx="47.681" ry="47.681"/>
<text text-anchor="middle" x="280.5617" y="-256.1748" font-family="Times,serif" font-size="14.00" fill="#000000">block</text>
<text text-anchor="middle" x="280.5617" y="-239.3748" font-family="Times,serif" font-size="14.00" fill="#000000">sequence</text>
</g>
<!-- _node&#45;&gt;block_sequence -->
<g id="edge3" class="edge">
<title>_node-&gt;block_sequence</title>
<path fill="none" stroke="#000000" d="M161.5777,-208.7335C177.6761,-207.8904 197.7314,-208.3236 214.9713,-213.1748 220.7641,-214.8049 226.569,-217.0806 232.1988,-219.721"/>
<polygon fill="#000000" stroke="#000000" points="230.9775,-223.0272 241.4751,-224.4593 234.1617,-216.7934 230.9775,-223.0272"/>
<text text-anchor="middle" x="197.2837" y="-217.1748" font-family="Times,serif" font-size="14.00" fill="#000000">- </text>
</g>
<!-- comment_start -->
<g id="node14" class="node">
<title>comment_start</title>
<ellipse fill="none" stroke="#000000" cx="393.1269" cy="-46.9748" rx="46.9497" ry="46.9497"/>
<text text-anchor="middle" x="393.1269" y="-42.7748" font-family="Times,serif" font-size="14.00" fill="#000000">comment</text>
</g>
<!-- _node&#45;&gt;comment_start -->
<g id="edge4" class="edge">
<title>_node-&gt;comment_start</title>
<path fill="none" stroke="#000000" d="M138.9026,-182.6607C145.769,-160.3515 158.3283,-130.4626 179.5961,-112.1748 223.5421,-74.3866 289.0005,-58.4981 335.8478,-51.8184"/>
<polygon fill="#000000" stroke="#000000" points="336.3911,-55.2771 345.8436,-50.4917 335.4701,-48.3379 336.3911,-55.2771"/>
<text text-anchor="middle" x="197.2837" y="-117.1748" font-family="Times,serif" font-size="14.00" fill="#000000">#</text>
</g>
<!-- final -->
<g id="node3" class="node">
<title>final</title>
<ellipse fill="none" stroke="#000000" cx="1347.3587" cy="-294.9748" rx="32.4818" ry="32.4818"/>
<ellipse fill="none" stroke="#000000" cx="1347.3587" cy="-294.9748" rx="36.4808" ry="36.4808"/>
<text text-anchor="middle" x="1347.3587" y="-290.7748" font-family="Times,serif" font-size="14.00" fill="#000000">Valid</text>
</g>
<!-- plain_scalar -->
<g id="node5" class="node">
<title>plain_scalar</title>
<ellipse fill="none" stroke="#000000" cx="726.6282" cy="-368.9748" rx="55.0528" ry="55.0528"/>
<text text-anchor="middle" x="726.6282" y="-364.7748" font-family="Times,serif" font-size="14.00" fill="#000000">plain scalar</text>
</g>
<!-- scalar_start&#45;&gt;plain_scalar -->
<g id="edge5" class="edge">
<title>scalar_start-&gt;plain_scalar</title>
<path fill="none" stroke="#000000" d="M525.3188,-361.2643C560.6377,-362.6171 617.0442,-364.7776 661.1755,-366.4679"/>
<polygon fill="#000000" stroke="#000000" points="661.1224,-369.9683 671.2491,-366.8537 661.3904,-362.9734 661.1224,-369.9683"/>
<text text-anchor="middle" x="594.7911" y="-369.1748" font-family="Times,serif" font-size="14.00" fill="#000000">string</text>
</g>
<!-- quoted_scalar -->
<g id="node6" class="node">
<title>quoted_scalar</title>
<ellipse fill="none" stroke="#000000" cx="726.6282" cy="-232.9748" rx="62.4994" ry="62.4994"/>
<text text-anchor="middle" x="726.6282" y="-228.7748" font-family="Times,serif" font-size="14.00" fill="#000000">quoted scalar</text>
</g>
<!-- scalar_start&#45;&gt;quoted_scalar -->
<g id="edge6" class="edge">
<title>scalar_start-&gt;quoted_scalar</title>
<path fill="none" stroke="#000000" d="M521.4123,-343.8902C556.7237,-324.805 616.5992,-292.4434 662.5888,-267.5869"/>
<polygon fill="#000000" stroke="#000000" points="664.4571,-270.5557 671.5902,-262.7219 661.1287,-264.3976 664.4571,-270.5557"/>
<text text-anchor="middle" x="594.7911" y="-333.1748" font-family="Times,serif" font-size="14.00" fill="#000000">'string' or "string"</text>
</g>
<!-- block_scalar -->
<g id="node7" class="node">
<title>block_scalar</title>
<ellipse fill="none" stroke="#000000" cx="726.6282" cy="-551.9748" rx="57.3416" ry="57.3416"/>
<text text-anchor="middle" x="726.6282" y="-547.7748" font-family="Times,serif" font-size="14.00" fill="#000000">block scalar</text>
</g>
<!-- scalar_start&#45;&gt;block_scalar -->
<g id="edge7" class="edge">
<title>scalar_start-&gt;block_scalar</title>
<path fill="none" stroke="#000000" d="M499.4664,-392.7511C506.9485,-417.8437 520.5268,-451.8053 543.2032,-473.9748 575.3437,-505.3969 622.0908,-525.0132 660.3474,-536.7145"/>
<polygon fill="#000000" stroke="#000000" points="659.8024,-540.2023 670.3836,-539.6646 661.7766,-533.4865 659.8024,-540.2023"/>
<text text-anchor="middle" x="594.7911" y="-535.1748" font-family="Times,serif" font-size="14.00" fill="#000000">&gt; or |</text>
</g>
<!-- plain_scalar&#45;&gt;final -->
<g id="edge21" class="edge">
<title>plain_scalar-&gt;final</title>
<path fill="none" stroke="#000000" d="M781.9637,-368.9748C814.7967,-368.9748 857.2378,-368.9748 894.9305,-368.9748 894.9305,-368.9748 894.9305,-368.9748 1199.0374,-368.9748 1240.6822,-368.9748 1282.6409,-345.3277 1311.2508,-324.7686"/>
<polygon fill="#000000" stroke="#000000" points="1313.3643,-327.5587 1319.3199,-318.7962 1309.1998,-321.9322 1313.3643,-327.5587"/>
<text text-anchor="middle" x="1053.3687" y="-373.1748" font-family="Times,serif" font-size="14.00" fill="#000000">EOF</text>
</g>
<!-- block_mapping -->
<g id="node12" class="node">
<title>block_mapping</title>
<ellipse fill="none" stroke="#000000" cx="894.9305" cy="-294.9748" rx="45.918" ry="45.918"/>
<text text-anchor="middle" x="894.9305" y="-299.1748" font-family="Times,serif" font-size="14.00" fill="#000000">block</text>
<text text-anchor="middle" x="894.9305" y="-282.3748" font-family="Times,serif" font-size="14.00" fill="#000000">mapping</text>
</g>
<!-- plain_scalar&#45;&gt;block_mapping -->
<g id="edge14" class="edge">
<title>plain_scalar-&gt;block_mapping</title>
<path fill="none" stroke="#000000" d="M777.5812,-346.5716C798.3884,-337.423 822.4204,-326.8564 843.2971,-317.6773"/>
<polygon fill="#000000" stroke="#000000" points="844.8986,-320.7966 852.6441,-313.5676 842.0811,-314.3886 844.8986,-320.7966"/>
<text text-anchor="middle" x="810.8247" y="-336.1748" font-family="Times,serif" font-size="14.00" fill="#000000">:</text>
</g>
<!-- quoted_scalar&#45;&gt;final -->
<g id="edge22" class="edge">
<title>quoted_scalar-&gt;final</title>
<path fill="none" stroke="#000000" d="M788.8958,-226.4131C820.601,-223.6115 859.7785,-220.9748 894.9305,-220.9748 894.9305,-220.9748 894.9305,-220.9748 1199.0374,-220.9748 1240.6822,-220.9748 1282.6409,-244.6219 1311.2508,-265.1811"/>
<polygon fill="#000000" stroke="#000000" points="1309.1998,-268.0174 1319.3199,-271.1534 1313.3643,-262.3909 1309.1998,-268.0174"/>
<text text-anchor="middle" x="1053.3687" y="-225.1748" font-family="Times,serif" font-size="14.00" fill="#000000">EOF</text>
</g>
<!-- quoted_scalar&#45;&gt;block_mapping -->
<g id="edge15" class="edge">
<title>quoted_scalar-&gt;block_mapping</title>
<path fill="none" stroke="#000000" d="M785.4922,-254.6594C803.8878,-261.4361 824.0606,-268.8674 842.0208,-275.4837"/>
<polygon fill="#000000" stroke="#000000" points="841.1522,-278.8936 851.7456,-279.0662 843.572,-272.3251 841.1522,-278.8936"/>
<text text-anchor="middle" x="810.8247" y="-268.1748" font-family="Times,serif" font-size="14.00" fill="#000000">:</text>
</g>
<!-- folded_scalar -->
<g id="node8" class="node">
<title>folded_scalar</title>
<ellipse fill="none" stroke="#000000" cx="894.9305" cy="-603.9748" rx="62.3174" ry="62.3174"/>
<text text-anchor="middle" x="894.9305" y="-608.1748" font-family="Times,serif" font-size="14.00" fill="#000000">block</text>
<text text-anchor="middle" x="894.9305" y="-591.3748" font-family="Times,serif" font-size="14.00" fill="#000000">folded scalar</text>
</g>
<!-- block_scalar&#45;&gt;folded_scalar -->
<g id="edge8" class="edge">
<title>block_scalar-&gt;folded_scalar</title>
<path fill="none" stroke="#000000" d="M781.7367,-569.0016C795.6794,-573.3094 810.8345,-577.9919 825.3882,-582.4885"/>
<polygon fill="#000000" stroke="#000000" points="824.7579,-585.9569 835.3455,-585.565 826.8243,-579.2689 824.7579,-585.9569"/>
<text text-anchor="middle" x="810.8247" y="-582.1748" font-family="Times,serif" font-size="14.00" fill="#000000">&gt;</text>
</g>
<!-- literal_scalar -->
<g id="node9" class="node">
<title>literal_scalar</title>
<ellipse fill="none" stroke="#000000" cx="894.9305" cy="-463.9748" rx="59.9137" ry="59.9137"/>
<text text-anchor="middle" x="894.9305" y="-468.1748" font-family="Times,serif" font-size="14.00" fill="#000000">block</text>
<text text-anchor="middle" x="894.9305" y="-451.3748" font-family="Times,serif" font-size="14.00" fill="#000000">literal scalar</text>
</g>
<!-- block_scalar&#45;&gt;literal_scalar -->
<g id="edge9" class="edge">
<title>block_scalar-&gt;literal_scalar</title>
<path fill="none" stroke="#000000" d="M777.5812,-525.3331C794.8003,-516.3298 814.228,-506.1716 832.2482,-496.7494"/>
<polygon fill="#000000" stroke="#000000" points="834.2842,-499.6345 841.5242,-491.8993 831.0407,-493.4313 834.2842,-499.6345"/>
<text text-anchor="middle" x="810.8247" y="-512.1748" font-family="Times,serif" font-size="14.00" fill="#000000">|</text>
</g>
<!-- line_block -->
<g id="node10" class="node">
<title>line_block</title>
<ellipse fill="none" stroke="#000000" cx="1053.3687" cy="-467.9748" rx="49.2784" ry="49.2784"/>
<text text-anchor="middle" x="1053.3687" y="-463.7748" font-family="Times,serif" font-size="14.00" fill="#000000">line block</text>
</g>
<!-- folded_scalar&#45;&gt;line_block -->
<g id="edge12" class="edge">
<title>folded_scalar-&gt;line_block</title>
<path fill="none" stroke="#000000" d="M942.4672,-563.1703C963.2391,-545.3401 987.4905,-524.5233 1008.009,-506.9106"/>
<polygon fill="#000000" stroke="#000000" points="1010.3668,-509.4994 1015.6751,-500.3302 1005.8075,-504.1878 1010.3668,-509.4994"/>
<text text-anchor="middle" x="980.5343" y="-535.1748" font-family="Times,serif" font-size="14.00" fill="#000000">\n</text>
</g>
<!-- literal_scalar&#45;&gt;line_block -->
<g id="edge13" class="edge">
<title>literal_scalar-&gt;line_block</title>
<path fill="none" stroke="#000000" d="M955.2812,-465.4985C967.8522,-465.8158 981.0962,-466.1502 993.6444,-466.467"/>
<polygon fill="#000000" stroke="#000000" points="993.9061,-469.9746 1003.9912,-466.7282 994.0828,-462.9769 993.9061,-469.9746"/>
<text text-anchor="middle" x="980.5343" y="-470.1748" font-family="Times,serif" font-size="14.00" fill="#000000">\n</text>
</g>
<!-- block_line -->
<g id="node11" class="node">
<title>block_line</title>
<ellipse fill="none" stroke="#000000" cx="1199.0374" cy="-445.9748" rx="49.2784" ry="49.2784"/>
<text text-anchor="middle" x="1199.0374" y="-441.7748" font-family="Times,serif" font-size="14.00" fill="#000000">block line</text>
</g>
<!-- line_block&#45;&gt;block_line -->
<g id="edge10" class="edge">
<title>line_block-&gt;block_line</title>
<path fill="none" stroke="#000000" d="M1102.2795,-460.5879C1114.4101,-458.7559 1127.5367,-456.7734 1140.0916,-454.8773"/>
<polygon fill="#000000" stroke="#000000" points="1140.6426,-458.3338 1150.0078,-453.3797 1139.5972,-451.4123 1140.6426,-458.3338"/>
<text text-anchor="middle" x="1126.2031" y="-461.1748" font-family="Times,serif" font-size="14.00" fill="#000000">ε</text>
</g>
<!-- block_line&#45;&gt;final -->
<g id="edge23" class="edge">
<title>block_line-&gt;final</title>
<path fill="none" stroke="#000000" d="M1242.5882,-422.1552C1259.5165,-411.5775 1278.2989,-398.0915 1292.8683,-382.9748 1305.8985,-369.4552 1317.3699,-352.311 1326.3842,-336.7536"/>
<polygon fill="#000000" stroke="#000000" points="1329.558,-338.2498 1331.4009,-327.8164 1323.454,-334.8233 1329.558,-338.2498"/>
<text text-anchor="middle" x="1279.6474" y="-409.1748" font-family="Times,serif" font-size="14.00" fill="#000000">EOF</text>
</g>
<!-- block_line&#45;&gt;line_block -->
<g id="edge11" class="edge">
<title>block_line-&gt;line_block</title>
<path fill="none" stroke="#000000" d="M1150.7683,-433.8196C1140.7863,-432.8406 1130.3831,-432.9568 1120.7578,-435.1748 1115.8128,-436.3143 1110.8105,-437.8679 1105.8831,-439.6829"/>
<polygon fill="#000000" stroke="#000000" points="1104.4981,-436.4675 1096.5345,-443.4554 1107.1177,-442.9589 1104.4981,-436.4675"/>
<text text-anchor="middle" x="1126.2031" y="-439.1748" font-family="Times,serif" font-size="14.00" fill="#000000">\n</text>
</g>
<!-- block_mapping&#45;&gt;_node -->
<g id="edge17" class="edge">
<title>block_mapping-&gt;_node</title>
<path fill="none" stroke="#000000" d="M872.1863,-254.9137C853.4112,-225.2454 824.1715,-185.9629 788.8774,-161.9748 764.9537,-145.7148 755.5546,-142.9748 726.6282,-142.9748 280.5617,-142.9748 280.5617,-142.9748 280.5617,-142.9748 237.2137,-142.9748 192.8047,-167.3801 163.9289,-187.1617"/>
<polygon fill="#000000" stroke="#000000" points="161.6373,-184.4951 155.4845,-193.1203 165.6731,-190.2146 161.6373,-184.4951"/>
<text text-anchor="middle" x="491.6525" y="-147.1748" font-family="Times,serif" font-size="14.00" fill="#000000">key: node</text>
</g>
<!-- block_mapping&#45;&gt;scalar_start -->
<g id="edge16" class="edge">
<title>block_mapping-&gt;scalar_start</title>
<path fill="none" stroke="#000000" d="M870.5225,-334.1319C846.5673,-371.0561 810.5613,-422.2915 788.8774,-432.9748 701.3309,-476.1078 586.4065,-419.7687 528.4565,-384.4915"/>
<polygon fill="#000000" stroke="#000000" points="530,-381.3301 519.658,-379.0291 526.3078,-387.2772 530,-381.3301"/>
<text text-anchor="middle" x="726.6282" y="-452.1748" font-family="Times,serif" font-size="14.00" fill="#000000">key: value</text>
</g>
<!-- block_sequence&#45;&gt;_node -->
<g id="edge19" class="edge">
<title>block_sequence-&gt;_node</title>
<path fill="none" stroke="#000000" d="M233.707,-243.246C216.5459,-239.6616 197.0588,-235.1349 179.5961,-229.9748 176.2192,-228.977 172.7398,-227.8557 169.271,-226.6733"/>
<polygon fill="#000000" stroke="#000000" points="170.2113,-223.2928 159.6166,-223.2307 167.8601,-229.8861 170.2113,-223.2928"/>
<text text-anchor="middle" x="197.2837" y="-242.1748" font-family="Times,serif" font-size="14.00" fill="#000000">- node</text>
</g>
<!-- block_sequence&#45;&gt;scalar_start -->
<g id="edge18" class="edge">
<title>block_sequence-&gt;scalar_start</title>
<path fill="none" stroke="#000000" d="M325.6019,-268.2217C358.3344,-280.8058 403.1825,-299.6804 440.1018,-321.1748 445.9554,-324.5828 451.9199,-328.5456 457.6163,-332.6109"/>
<polygon fill="#000000" stroke="#000000" points="455.5997,-335.4725 465.7261,-338.5879 459.7526,-329.8375 455.5997,-335.4725"/>
<text text-anchor="middle" x="393.1269" y="-325.1748" font-family="Times,serif" font-size="14.00" fill="#000000">- scalar</text>
</g>
<!-- comment_start&#45;&gt;final -->
<g id="edge24" class="edge">
<title>comment_start-&gt;final</title>
<path fill="none" stroke="#000000" d="M439.382,-56.0004C480.1269,-63.1614 541.1668,-71.9748 594.7911,-71.9748 594.7911,-71.9748 594.7911,-71.9748 1199.0374,-71.9748 1283.1157,-71.9748 1322.4186,-183.237 1338.2511,-248.5808"/>
<polygon fill="#000000" stroke="#000000" points="1334.9187,-249.7031 1340.5939,-258.6497 1341.7366,-248.1167 1334.9187,-249.7031"/>
<text text-anchor="middle" x="894.9305" y="-76.1748" font-family="Times,serif" font-size="14.00" fill="#000000">EOF</text>
</g>
<!-- comment_start&#45;&gt;comment_start -->
<g id="edge20" class="edge">
<title>comment_start-&gt;comment_start</title>
<path fill="none" stroke="#000000" d="M374.8428,-90.3965C375.6436,-102.5898 381.7383,-111.9497 393.1269,-111.9497 401.1346,-111.9497 406.525,-107.3223 409.2982,-100.3362"/>
<polygon fill="#000000" stroke="#000000" points="412.7553,-100.9057 411.4111,-90.3965 405.9082,-99.4501 412.7553,-100.9057"/>
<text text-anchor="middle" x="393.1269" y="-116.1497" font-family="Times,serif" font-size="14.00" fill="#000000">string</text>
</g>
</g>
</svg>